PP_AM2_Trial_4_OSim_ik										
version=1										
nRows=129										
nColumns=11										
inDegrees=yes										
										
"Units are S.I. units (second, meters, Newtons, ...)"										
Angles are in degrees.										
										
endheader										
time	secondmc_rx	secondmc_rz	secondmc_ry	secondmc_tx	secondmc_ty	secondmc_tz	2MCP_flexion	2MCP_abduction	2PIP_flexion	2DIP_flexion
5.8083	-27.4646	-1.6537	-99.4862	0.0044811	0.072026	0.064466	-6.6631	14.9304	32.283	51.0026
5.8167	-27.4649	-1.6536	-99.4863	0.0044802	0.072035	0.064468	-6.6634	14.9308	32.2829	51.0026
5.825	-27.4651	-1.6535	-99.4865	0.0044804	0.072044	0.064469	-6.6638	14.9311	32.2827	51.0025
5.8333	-27.4653	-1.6535	-99.4866	0.0044813	0.072052	0.06447	-6.6641	14.9315	32.2825	51.0025
5.8417	-27.4656	-1.6534	-99.4867	0.0044824	0.072059	0.064471	-6.6645	14.9318	32.2824	51.0025
5.85	-27.4658	-1.6533	-99.4868	0.0044833	0.072065	0.064471	-6.6648	14.9322	32.2822	51.0025
5.8583	-27.466	-1.6533	-99.4869	0.0044837	0.072069	0.064472	-6.6652	14.9325	32.282	51.0025
5.8667	-27.4663	-1.6532	-99.487	0.0044831	0.072073	0.064474	-6.6655	14.9329	32.2819	51.0025
5.875	-27.4665	-1.6532	-99.4872	0.0044816	0.072075	0.064475	-6.6659	14.9333	32.2817	51.0024
5.8833	-27.4667	-1.6531	-99.4873	0.0044789	0.072077	0.064478	-6.6662	14.9336	32.2816	51.0024
5.8917	-27.467	-1.6531	-99.4874	0.004475	0.072078	0.06448	-6.6665	14.9339	32.2814	51.0024
5.9	-27.4672	-1.6531	-99.4876	0.0044701	0.072079	0.064484	-6.6668	14.9343	32.2813	51.0024
5.9083	-27.4674	-1.653	-99.4877	0.0044643	0.072081	0.064487	-6.6672	14.9346	32.2811	51.0024
5.9167	-27.4677	-1.653	-99.4879	0.004458	0.072084	0.064491	-6.6675	14.9349	32.281	51.0024
5.925	-27.4679	-1.653	-99.4881	0.0044515	0.072088	0.064495	-6.6678	14.9352	32.2808	51.0024
5.9333	-27.4681	-1.653	-99.4882	0.0044452	0.072093	0.064499	-6.6681	14.9355	32.2807	51.0024
5.9417	-27.4683	-1.653	-99.4884	0.0044395	0.0721	0.064502	-6.6683	14.9358	32.2806	51.0024
5.95	-27.4686	-1.653	-99.4886	0.0044347	0.072106	0.064504	-6.6686	14.9361	32.2805	51.0023
5.9583	-27.4688	-1.6531	-99.4888	0.0044312	0.072114	0.064506	-6.6689	14.9364	32.2804	51.0023
5.9667	-27.469	-1.6531	-99.489	0.0044291	0.072122	0.064506	-6.6691	14.9367	32.2802	51.0023
5.975	-27.4692	-1.6532	-99.4892	0.0044284	0.072129	0.064506	-6.6694	14.937	32.2801	51.0023
5.9833	-27.4695	-1.6533	-99.4893	0.0044291	0.072137	0.064506	-6.6696	14.9374	32.28	51.0023
5.9917	-27.4697	-1.6534	-99.4895	0.004431	0.072143	0.064505	-6.6698	14.9377	32.2799	51.0023
6	-27.4699	-1.6535	-99.4896	0.0044339	0.072149	0.064503	-6.6701	14.938	32.2798	51.0023
6.0083	-27.4702	-1.6536	-99.4898	0.0044377	0.072155	0.064501	-6.6703	14.9384	32.2797	51.0023
6.0167	-27.4704	-1.6537	-99.4899	0.0044421	0.07216	0.064498	-6.6705	14.9387	32.2796	51.0023
6.025	-27.4707	-1.6538	-99.49	0.0044468	0.072164	0.064495	-6.6707	14.9391	32.2795	51.0023
6.0333	-27.4709	-1.6539	-99.4901	0.0044517	0.072169	0.064492	-6.6709	14.9394	32.2794	51.0023
6.0417	-27.4711	-1.654	-99.4902	0.0044565	0.072173	0.064488	-6.6711	14.9398	32.2793	51.0023
6.05	-27.4714	-1.6541	-99.4903	0.0044609	0.072178	0.064484	-6.6713	14.9402	32.2792	51.0023
6.0583	-27.4716	-1.6542	-99.4904	0.0044647	0.072184	0.064479	-6.6716	14.9405	32.2791	51.0023
6.0667	-27.4719	-1.6543	-99.4905	0.0044678	0.07219	0.064475	-6.6718	14.9409	32.2789	51.0023
6.075	-27.4721	-1.6544	-99.4906	0.00447	0.072197	0.06447	-6.672	14.9413	32.2788	51.0023
6.0833	-27.4724	-1.6545	-99.4907	0.0044713	0.072205	0.064466	-6.6722	14.9416	32.2787	51.0023
6.0917	-27.4726	-1.6546	-99.4908	0.0044718	0.072213	0.064461	-6.6724	14.942	32.2786	51.0023
6.1	-27.4729	-1.6547	-99.4909	0.0044715	0.072222	0.064457	-6.6726	14.9424	32.2785	51.0023
6.1083	-27.4731	-1.6548	-99.491	0.0044705	0.072231	0.064454	-6.6729	14.9428	32.2784	51.0022
6.1167	-27.4734	-1.655	-99.4911	0.0044692	0.072239	0.064451	-6.6731	14.9431	32.2782	51.0022
6.125	-27.4737	-1.6551	-99.4912	0.0044677	0.072247	0.064449	-6.6733	14.9435	32.2781	51.0022
6.1333	-27.4739	-1.6552	-99.4912	0.0044661	0.072254	0.064449	-6.6735	14.9439	32.278	51.0022
6.1417	-27.4742	-1.6553	-99.4913	0.0044647	0.07226	0.064449	-6.6737	14.9443	32.2779	51.0022
6.15	-27.4745	-1.6554	-99.4914	0.0044637	0.072266	0.06445	-6.6739	14.9447	32.2778	51.0022
6.1583	-27.4747	-1.6556	-99.4915	0.0044631	0.07227	0.064451	-6.6741	14.9451	32.2776	51.0022
6.1667	-27.475	-1.6557	-99.4916	0.004463	0.072273	0.064453	-6.6743	14.9454	32.2775	51.0022
6.175	-27.4752	-1.6559	-99.4917	0.0044635	0.072276	0.064455	-6.6745	14.9458	32.2774	51.0022
6.1833	-27.4755	-1.656	-99.4918	0.0044644	0.072278	0.064458	-6.6747	14.9462	32.2773	51.0022
6.1917	-27.4757	-1.6562	-99.4919	0.0044659	0.072279	0.06446	-6.6749	14.9466	32.2772	51.0022
6.2	-27.476	-1.6564	-99.492	0.0044676	0.072281	0.064462	-6.6751	14.947	32.2771	51.0022
6.2083	-27.4763	-1.6565	-99.4921	0.0044697	0.072281	0.064465	-6.6753	14.9473	32.277	51.0022
6.2167	-27.4765	-1.6567	-99.4922	0.0044719	0.072282	0.064468	-6.6754	14.9477	32.2769	51.0022
6.225	-27.4768	-1.6569	-99.4924	0.0044741	0.072282	0.064472	-6.6756	14.948	32.2768	51.0022
6.2333	-27.477	-1.6571	-99.4925	0.0044763	0.072283	0.064477	-6.6758	14.9484	32.2767	51.0022
6.2417	-27.4773	-1.6573	-99.4926	0.0044784	0.072283	0.064482	-6.6759	14.9487	32.2767	51.0022
6.25	-27.4775	-1.6575	-99.4928	0.0044805	0.072284	0.064487	-6.6761	14.9491	32.2766	51.0022
6.2583	-27.4777	-1.6577	-99.493	0.0044826	0.072286	0.064493	-6.6762	14.9494	32.2765	51.0022
6.2667	-27.478	-1.658	-99.4931	0.0044848	0.072289	0.064498	-6.6763	14.9497	32.2764	51.0022
6.275	-27.4782	-1.6582	-99.4933	0.0044872	0.072292	0.064503	-6.6765	14.9501	32.2764	51.0022
6.2833	-27.4785	-1.6585	-99.4935	0.0044899	0.072295	0.064507	-6.6766	14.9504	32.2763	51.0022
6.2917	-27.4787	-1.6588	-99.4937	0.004493	0.0723	0.06451	-6.6767	14.9507	32.2763	51.0022
6.3	-27.479	-1.659	-99.4939	0.0044965	0.072304	0.064513	-6.6768	14.951	32.2762	51.0022
6.3083	-27.4792	-1.6593	-99.4941	0.0045004	0.072308	0.064514	-6.6769	14.9513	32.2762	51.0022
6.3167	-27.4795	-1.6596	-99.4943	0.0045044	0.072312	0.064515	-6.677	14.9516	32.2761	51.0022
6.325	-27.4797	-1.6599	-99.4945	0.0045086	0.072316	0.064515	-6.6771	14.9519	32.2761	51.0022
6.3333	-27.48	-1.6602	-99.4947	0.0045126	0.07232	0.064514	-6.6772	14.9522	32.276	51.0022
6.3417	-27.4802	-1.6605	-99.495	0.0045162	0.072323	0.064513	-6.6773	14.9525	32.276	51.0023
6.35	-27.4805	-1.6608	-99.4952	0.0045193	0.072326	0.064511	-6.6774	14.9528	32.2759	51.0023
6.3583	-27.4807	-1.6611	-99.4955	0.0045214	0.072328	0.06451	-6.6775	14.9531	32.2759	51.0023
6.3667	-27.481	-1.6614	-99.4957	0.0045225	0.07233	0.064509	-6.6776	14.9533	32.2758	51.0023
6.375	-27.4812	-1.6617	-99.496	0.0045224	0.072331	0.064509	-6.6777	14.9536	32.2758	51.0023
6.3833	-27.4814	-1.662	-99.4963	0.0045209	0.072331	0.06451	-6.6778	14.9539	32.2757	51.0023
6.3917	-27.4817	-1.6623	-99.4965	0.0045182	0.072331	0.064512	-6.6779	14.9541	32.2757	51.0023
6.4	-27.4819	-1.6626	-99.4968	0.0045145	0.07233	0.064516	-6.678	14.9544	32.2756	51.0023
6.4083	-27.4822	-1.6629	-99.4971	0.0045099	0.072328	0.064521	-6.6781	14.9546	32.2756	51.0023
6.4167	-27.4824	-1.6632	-99.4974	0.004505	0.072327	0.064527	-6.6781	14.9548	32.2756	51.0023
6.425	-27.4826	-1.6635	-99.4977	0.0044999	0.072326	0.064534	-6.6782	14.9551	32.2755	51.0023
6.4333	-27.4829	-1.6638	-99.4981	0.0044953	0.072325	0.064541	-6.6783	14.9553	32.2755	51.0024
6.4417	-27.4831	-1.6642	-99.4984	0.0044914	0.072325	0.064547	-6.6784	14.9555	32.2755	51.0024
6.45	-27.4834	-1.6646	-99.4987	0.0044884	0.072327	0.064552	-6.6784	14.9558	32.2755	51.0024
6.4583	-27.4836	-1.6649	-99.4991	0.0044867	0.072329	0.064557	-6.6785	14.956	32.2755	51.0024
6.4667	-27.4838	-1.6653	-99.4994	0.0044862	0.072333	0.06456	-6.6785	14.9562	32.2755	51.0024
6.475	-27.4841	-1.6657	-99.4998	0.0044869	0.072338	0.064562	-6.6785	14.9564	32.2755	51.0024
6.4833	-27.4843	-1.6662	-99.5001	0.0044885	0.072344	0.064563	-6.6786	14.9566	32.2755	51.0025
6.4917	-27.4845	-1.6666	-99.5005	0.004491	0.072351	0.064563	-6.6786	14.9568	32.2755	51.0025
6.5	-27.4848	-1.667	-99.5008	0.004494	0.072358	0.064562	-6.6786	14.957	32.2755	51.0025
6.5083	-27.485	-1.6675	-99.5012	0.0044972	0.072366	0.064561	-6.6786	14.9573	32.2755	51.0025
6.5167	-27.4852	-1.6679	-99.5015	0.0045004	0.072374	0.064559	-6.6786	14.9575	32.2756	51.0026
6.525	-27.4855	-1.6684	-99.5019	0.0045032	0.072382	0.064558	-6.6786	14.9577	32.2756	51.0026
6.5333	-27.4857	-1.6688	-99.5022	0.0045055	0.07239	0.064556	-6.6786	14.9579	32.2756	51.0026
6.5417	-27.486	-1.6693	-99.5026	0.0045073	0.072399	0.064555	-6.6786	14.9581	32.2756	51.0026
6.55	-27.4862	-1.6698	-99.5029	0.0045086	0.072406	0.064553	-6.6786	14.9584	32.2756	51.0026
6.5583	-27.4865	-1.6703	-99.5033	0.0045095	0.072414	0.064552	-6.6786	14.9586	32.2756	51.0027
6.5667	-27.4867	-1.6708	-99.5036	0.0045101	0.07242	0.064552	-6.6785	14.9588	32.2757	51.0027
6.575	-27.487	-1.6712	-99.5039	0.0045107	0.072425	0.064551	-6.6785	14.9591	32.2757	51.0027
6.5833	-27.4872	-1.6717	-99.5043	0.0045113	0.072429	0.064551	-6.6785	14.9593	32.2757	51.0027
6.5917	-27.4875	-1.6722	-99.5046	0.0045121	0.072432	0.06455	-6.6785	14.9595	32.2757	51.0028
6.6	-27.4877	-1.6727	-99.505	0.004513	0.072434	0.06455	-6.6785	14.9598	32.2757	51.0028
6.6083	-27.4879	-1.6732	-99.5053	0.0045141	0.072435	0.06455	-6.6785	14.96	32.2757	51.0028
6.6167	-27.4882	-1.6736	-99.5056	0.0045152	0.072434	0.06455	-6.6785	14.9602	32.2757	51.0028
6.625	-27.4884	-1.6741	-99.506	0.0045162	0.072433	0.064551	-6.6785	14.9604	32.2758	51.0029
6.6333	-27.4887	-1.6746	-99.5063	0.004517	0.072432	0.064551	-6.6785	14.9607	32.2758	51.0029
6.6417	-27.4889	-1.675	-99.5067	0.0045176	0.07243	0.064551	-6.6785	14.9609	32.2758	51.0029
6.65	-27.4892	-1.6755	-99.507	0.0045178	0.072429	0.064552	-6.6785	14.9611	32.2758	51.0029
6.6583	-27.4894	-1.6759	-99.5074	0.0045176	0.072427	0.064553	-6.6785	14.9614	32.2758	51.0029
6.6667	-27.4897	-1.6764	-99.5077	0.0045171	0.072427	0.064554	-6.6785	14.9616	32.2758	51.003
6.675	-27.4899	-1.6768	-99.5081	0.0045162	0.072427	0.064556	-6.6785	14.9618	32.2758	51.003
6.6833	-27.4901	-1.6773	-99.5084	0.004515	0.072428	0.064557	-6.6785	14.962	32.2758	51.003
6.6917	-27.4904	-1.6777	-99.5088	0.0045136	0.072429	0.064559	-6.6785	14.9623	32.2758	51.003
6.7	-27.4906	-1.6782	-99.5091	0.0045121	0.072432	0.064561	-6.6785	14.9625	32.2758	51.0031
6.7083	-27.4909	-1.6787	-99.5095	0.0045104	0.072435	0.064563	-6.6785	14.9627	32.2758	51.0031
6.7167	-27.4911	-1.6791	-99.5098	0.0045086	0.07244	0.064564	-6.6785	14.9629	32.2759	51.0031
6.725	-27.4914	-1.6796	-99.5102	0.0045066	0.072444	0.064566	-6.6785	14.9632	32.2759	51.0031
6.7333	-27.4916	-1.6801	-99.5105	0.0045045	0.072449	0.064568	-6.6785	14.9634	32.2759	51.0031
6.7417	-27.4919	-1.6806	-99.5109	0.0045021	0.072455	0.064569	-6.6785	14.9636	32.2759	51.0032
6.75	-27.4921	-1.6811	-99.5112	0.0044994	0.072461	0.064571	-6.6784	14.9639	32.2759	51.0032
6.7583	-27.4924	-1.6816	-99.5115	0.0044965	0.072467	0.064572	-6.6784	14.9641	32.276	51.0032
6.7667	-27.4927	-1.6821	-99.5118	0.0044931	0.072473	0.064573	-6.6784	14.9644	32.276	51.0033
6.775	-27.4929	-1.6827	-99.5121	0.0044895	0.072479	0.064574	-6.6783	14.9647	32.276	51.0033
6.7833	-27.4932	-1.6832	-99.5124	0.0044856	0.072485	0.064576	-6.6782	14.9649	32.276	51.0033
6.7917	-27.4934	-1.6838	-99.5126	0.0044814	0.072491	0.064576	-6.6782	14.9652	32.2761	51.0033
6.8	-27.4937	-1.6843	-99.5129	0.0044771	0.072496	0.064578	-6.6781	14.9655	32.2761	51.0034
6.8083	-27.494	-1.6849	-99.5131	0.0044727	0.072501	0.064579	-6.678	14.9658	32.2761	51.0034
6.8167	-27.4942	-1.6855	-99.5133	0.0044683	0.072505	0.06458	-6.678	14.9661	32.2762	51.0034
6.825	-27.4945	-1.6861	-99.5135	0.0044638	0.072508	0.064581	-6.6779	14.9665	32.2762	51.0034
6.8333	-27.4947	-1.6866	-99.5136	0.0044593	0.07251	0.064583	-6.6778	14.9668	32.2762	51.0035
6.8417	-27.495	-1.6872	-99.5138	0.0044547	0.072512	0.064585	-6.6777	14.9672	32.2763	51.0035
6.85	-27.4953	-1.6878	-99.5139	0.0044501	0.072513	0.064588	-6.6776	14.9675	32.2763	51.0035
6.8583	-27.4955	-1.6884	-99.5141	0.0044454	0.072515	0.06459	-6.6776	14.9679	32.2763	51.0036
6.8667	-27.4958	-1.689	-99.5142	0.0044408	0.072517	0.064592	-6.6775	14.9683	32.2764	51.0036
6.875	-27.496	-1.6895	-99.5143	0.0044361	0.07252	0.064595	-6.6774	14.9686	32.2764	51.0036
